<?xml version="1.0" encoding="UTF-8"?>
<svg xmlns="http://www.w3.org/2000/svg" xmlns:xlink="http://www.w3.org/1999/xlink" width="128pt" height="128pt" viewBox="0 0 128 128" version="1.1">
<g id="surface3338692">
<path style=" stroke:none;fill-rule:nonzero;fill:rgb(8.627451%,12.941176%,24.313725%);fill-opacity:1;" d="M 1.976562 64 C 1.976562 29.75 29.75 1.976562 64 1.976562 C 98.25 1.976562 126.023438 29.75 126.023438 64 C 126.023438 98.25 98.25 126.023438 64 126.023438 C 29.75 126.023438 1.976562 98.25 1.976562 64 Z M 1.976562 64 "/>
<path style=" stroke:none;fill-rule:nonzero;fill:rgb(100%,100%,100%);fill-opacity:1;" d="M 38.601562 50.773438 C 31.171875 50.773438 25.148438 56.796875 25.148438 64.226562 C 25.148438 71.652344 31.171875 77.675781 38.601562 77.675781 C 46.027344 77.675781 52.050781 71.652344 52.050781 64.226562 C 52.050781 56.796875 46.027344 50.773438 38.601562 50.773438 Z M 79.675781 26.851562 C 72.246094 26.851562 66.226562 32.871094 66.226562 40.300781 C 66.226562 47.726562 72.246094 53.75 79.675781 53.75 C 87.101562 53.75 93.125 47.726562 93.125 40.300781 C 93.125 32.871094 87.101562 26.851562 79.675781 26.851562 Z M 79.675781 74.25 C 72.246094 74.25 66.226562 80.273438 66.226562 87.699219 C 66.226562 95.128906 72.246094 101.148438 79.675781 101.148438 C 87.101562 101.148438 93.125 95.128906 93.125 87.699219 C 93.125 80.273438 87.101562 74.25 79.675781 74.25 Z M 79.675781 74.25 "/>
<path style=" stroke:none;fill-rule:nonzero;fill:rgb(100%,100%,100%);fill-opacity:1;" d="M 77.859375 36.734375 L 81.496094 42.980469 L 40.425781 66.894531 L 36.789062 60.652344 Z M 77.859375 36.734375 "/>
<path style=" stroke:none;fill-rule:nonzero;fill:rgb(100%,100%,100%);fill-opacity:1;" d="M 40.421875 60.65625 L 81.492188 84.570312 L 77.855469 90.816406 L 36.789062 66.898438 Z M 40.421875 60.65625 "/>
</g>
</svg>
